<svg width="17" height="18" viewBox="0 0 17 18" fill="none" xmlns="http://www.w3.org/2000/svg">
<path d="M13.8977 2.39531C13.15 1.64014 12.2607 1.03986 11.2808 0.628833C10.3008 0.21781 9.24938 0.00412057 8.18672 0H8.125C5.97011 0 3.90349 0.856024 2.37976 2.37976C0.856024 3.90349 0 5.97012 0 8.125V12.5C0 12.9973 0.197544 13.4742 0.549175 13.8258C0.900805 14.1775 1.37772 14.375 1.875 14.375H3.125C3.62228 14.375 4.09919 14.1775 4.45082 13.8258C4.80246 13.4742 5 12.9973 5 12.5V9.375C5 8.87772 4.80246 8.40081 4.45082 8.04917C4.09919 7.69754 3.62228 7.5 3.125 7.5H1.27812C1.39866 6.19682 1.88815 4.955 2.68924 3.92008C3.49032 2.88516 4.56981 2.10002 5.80117 1.65669C7.03253 1.21336 8.36475 1.1302 9.64169 1.41696C10.9186 1.70372 12.0874 2.34852 13.0109 3.27578C14.1398 4.41039 14.8341 5.90552 14.9727 7.5H13.125C12.6277 7.5 12.1508 7.69754 11.7992 8.04917C11.4475 8.40081 11.25 8.87772 11.25 9.375V12.5C11.25 12.9973 11.4475 13.4742 11.7992 13.8258C12.1508 14.1775 12.6277 14.375 13.125 14.375H15C15 14.8723 14.8025 15.3492 14.4508 15.7008C14.0992 16.0525 13.6223 16.25 13.125 16.25H8.75C8.58424 16.25 8.42527 16.3158 8.30806 16.4331C8.19085 16.5503 8.125 16.7092 8.125 16.875C8.125 17.0408 8.19085 17.1997 8.30806 17.3169C8.42527 17.4342 8.58424 17.5 8.75 17.5H13.125C13.9538 17.5 14.7487 17.1708 15.3347 16.5847C15.9208 15.9987 16.25 15.2038 16.25 14.375V8.125C16.2541 7.06217 16.0484 6.00898 15.6447 5.02577C15.2411 4.04257 14.6474 3.14868 13.8977 2.39531ZM3.125 8.75C3.29076 8.75 3.44973 8.81585 3.56694 8.93306C3.68415 9.05027 3.75 9.20924 3.75 9.375V12.5C3.75 12.6658 3.68415 12.8247 3.56694 12.9419C3.44973 13.0592 3.29076 13.125 3.125 13.125H1.875C1.70924 13.125 1.55027 13.0592 1.43306 12.9419C1.31585 12.8247 1.25 12.6658 1.25 12.5V8.75H3.125ZM13.125 13.125C12.9592 13.125 12.8003 13.0592 12.6831 12.9419C12.5658 12.8247 12.5 12.6658 12.5 12.5V9.375C12.5 9.20924 12.5658 9.05027 12.6831 8.93306C12.8003 8.81585 12.9592 8.75 13.125 8.75H15V13.125H13.125Z" fill="black"/>
</svg>
