<?xml version="1.0" encoding="UTF-8"?>
<svg version="1.1" xmlns="http://www.w3.org/2000/svg" width="352" height="658">
<path d="M0 0 C0.85635544 -0.00832352 1.71271088 -0.01664703 2.59501648 -0.02522278 C5.41161729 -0.04921276 8.22798574 -0.05808339 11.04467773 -0.06469727 C13.01895715 -0.07367512 14.99323592 -0.08279715 16.96751404 -0.09205627 C21.10401048 -0.10852126 25.24042627 -0.11624129 29.37695312 -0.11914062 C34.64329514 -0.12450793 39.90886415 -0.16213059 45.17498875 -0.20788479 C49.25457936 -0.23783064 53.33398822 -0.24486804 57.41367912 -0.24586678 C59.35311341 -0.25003786 61.29254982 -0.26234495 63.23187447 -0.28338432 C80.94659549 -0.46020357 94.27488516 2.60592587 108.16577148 14.30639648 C119.92638962 25.92381074 126.41057721 40.87581837 127.16577148 57.30639648 C127.17267309 59.53030676 127.15250509 61.75301676 127.12890625 63.97680664 C126.91668766 84.29724183 129.42295883 102.22342666 144.04077148 117.55639648 C154.63080103 127.64595205 167.23705484 131.4092632 181.71484375 131.44824219 C182.4346492 131.45171661 183.15445465 131.45519104 183.89607239 131.45877075 C185.44832667 131.46607983 187.00059107 131.4714508 188.55285835 131.47506142 C191.02311002 131.48229764 193.49317103 131.49801845 195.96336365 131.5164032 C202.98336087 131.56852343 210.00325113 131.616753 217.0234375 131.63232422 C221.33059407 131.64249921 225.63726429 131.67205953 229.94422722 131.71364403 C231.57098624 131.72582358 233.19781433 131.7310996 234.82461739 131.7288456 C253.38598846 131.70946343 267.99113098 135.90661589 281.84545898 148.89233398 C291.66484101 159.10845872 298.40766604 172.62496281 298.42304039 186.91215038 C298.42654646 187.64938631 298.43005254 188.38662225 298.43366486 189.14619866 C298.44295537 191.61212399 298.43806165 194.07781194 298.43319702 196.54374695 C298.43693447 198.33140133 298.44153637 200.11905408 298.44692767 201.90670425 C298.45916148 206.81602322 298.45889674 211.72527407 298.45653892 216.63460481 C298.45613084 221.93061331 298.46716903 227.22659995 298.47665405 232.52259827 C298.49326741 242.89769227 298.49876376 253.27276354 298.49987881 263.64786973 C298.50082918 272.08200507 298.50493892 280.51613291 298.51128006 288.95026588 C298.52889383 312.86461202 298.53811878 336.77894021 298.53661911 360.69329288 C298.5365392 361.98253846 298.53645929 363.27178403 298.53637695 364.60009766 C298.53629519 365.89091823 298.53621343 367.18173881 298.53612919 368.51167516 C298.53531638 389.42883391 298.55445247 410.34592064 298.58265369 431.26305857 C298.61138455 452.74261897 298.62519385 474.22214425 298.62346613 495.70172435 C298.62280228 507.76003454 298.62829272 519.81826924 298.64982224 531.87656212 C298.66803672 542.14396217 298.67237916 552.41125251 298.65880339 562.67866173 C298.65227499 567.9155879 298.65215206 573.15230361 298.66950989 578.38920975 C298.68525117 583.18783376 298.68236604 587.98608061 298.66494162 592.78469548 C298.66187406 594.51618393 298.66549488 596.24770059 298.67666177 597.97915574 C298.78048144 615.22553752 294.62797789 629.64316498 282.60327148 642.55639648 C271.17962835 653.35408657 257.75571226 658.78989724 242.09744263 658.69407654 C240.49249036 658.70215484 240.49249036 658.70215484 238.85511482 658.71039635 C235.29334597 658.72462867 231.73195125 658.7175837 228.17016602 658.71044922 C225.60691022 658.71615525 223.04365697 658.72312041 220.48040771 658.73124695 C214.25463063 658.74730895 208.0289902 658.74928412 201.80319871 658.74403404 C196.73964727 658.73998275 191.67612557 658.74144726 186.61257553 658.7467823 C185.52908792 658.74790494 185.52908792 658.74790494 184.42371168 658.74905025 C182.95602179 658.75058182 181.4883319 658.75212017 180.02064203 658.75366522 C166.27520463 658.76737445 152.52982425 658.76196377 138.78438817 658.75048 C126.22861308 658.74055011 113.67298541 658.75348683 101.11723305 658.7774142 C88.20306149 658.80183784 75.2889585 658.81140501 62.37476432 658.80476147 C55.13320304 658.80127638 47.89175507 658.80345414 40.65021133 658.8210125 C33.83914591 658.83732322 27.02836581 658.83250215 20.21730804 658.81370735 C17.72287677 658.81002734 15.22842458 658.81311267 12.7340126 658.82359314 C-11.37472617 658.91712589 -11.37472617 658.91712589 -20.83422852 654.30639648 C-22.5396582 653.5290918 -22.5396582 653.5290918 -24.27954102 652.73608398 C-38.89856 644.25449571 -48.46829774 632.20579403 -53.2003265 616.02146593 C-54.19781306 611.74912537 -54.24939272 607.62763852 -54.21733856 603.25718212 C-54.22229808 602.29223055 -54.22725759 601.32727899 -54.2323674 600.33308646 C-54.24528606 597.11052773 -54.23695051 593.88838589 -54.2286377 590.66581726 C-54.23352834 588.32768693 -54.23971895 585.98955901 -54.24709558 583.6514352 C-54.26177811 577.90655084 -54.26252967 572.16178316 -54.25732311 566.41688515 C-54.25185185 559.53228272 -54.26377032 552.64773754 -54.27609376 545.76314789 C-54.30098593 531.49035941 -54.30552364 517.21760837 -54.30362779 502.94480165 C-54.30225402 491.92207159 -54.30607575 480.89935449 -54.31355286 469.87662697 C-54.3146032 468.29226179 -54.31565081 466.70789661 -54.31669572 465.12353143 C-54.31721506 464.33704268 -54.31773441 463.55055392 -54.31826949 462.74023217 C-54.31878963 461.95229386 -54.31930977 461.16435555 -54.31984568 460.35254031 C-54.32036967 459.56326985 -54.32089366 458.77399938 -54.32143353 457.96081162 C-54.33601422 435.76580141 -54.34430047 413.57079596 -54.33968353 391.37578106 C-54.3394256 390.12104041 -54.3394256 390.12104041 -54.33916246 388.84095146 C-54.33827359 384.60139979 -54.33732877 380.36184813 -54.33636445 376.12229647 C-54.33617342 375.28032865 -54.33598238 374.43836082 -54.33578556 373.57087882 C-54.33539847 371.86821588 -54.33500814 370.16555295 -54.33461458 368.46289001 C-54.32864484 341.97066703 -54.34408277 315.47853141 -54.3762207 288.98632812 C-54.41230923 259.21238442 -54.4316288 229.4384961 -54.426682 199.66452914 C-54.42621203 196.48889053 -54.42580177 193.31325192 -54.4254303 190.1376133 C-54.42527672 188.96475607 -54.42527672 188.96475607 -54.42512004 187.76820475 C-54.42392597 175.9725521 -54.43588237 164.17695937 -54.45457458 152.38132286 C-54.47582705 138.96367886 -54.47964565 125.54616042 -54.46027499 112.1285108 C-54.45086732 105.2833724 -54.44933072 98.43846198 -54.47063065 91.59334373 C-54.48932761 85.32428897 -54.48485056 79.05568932 -54.46208483 72.78665195 C-54.45789597 70.52159256 -54.46210856 68.25649838 -54.47568077 65.99147578 C-54.54232856 54.05363309 -54.43510433 44.11313928 -48.83422852 33.30639648 C-48.43493684 32.46635832 -48.03564517 31.62632016 -47.62425375 30.76082629 C-44.51490535 24.35712974 -39.78720306 19.34550972 -34.83422852 14.30639648 C-34.26833008 13.72760742 -33.70243164 13.14881836 -33.11938477 12.55249023 C-24.07560796 4.08362344 -12.19595292 0.01020427 0 0 Z " fill="#161616" transform="translate(53.834228515625,-0.306396484375)"/>
</svg>
