<svg width="24" height="24" viewBox="0 0 24 24" fill="none" xmlns="http://www.w3.org/2000/svg">
<path d="M21.7206 13.0799C22.3171 13.0799 22.8006 12.5964 22.8006 11.9999C22.8006 11.4035 22.3171 10.9199 21.7206 10.9199C21.1242 10.9199 20.6406 11.4035 20.6406 11.9999C20.6406 12.5964 21.1242 13.0799 21.7206 13.0799Z" fill="white"/>
<path d="M18.4784 13.0799C19.0749 13.0799 19.5584 12.5964 19.5584 11.9999C19.5584 11.4035 19.0749 10.9199 18.4784 10.9199C17.882 10.9199 17.3984 11.4035 17.3984 11.9999C17.3984 12.5964 17.882 13.0799 18.4784 13.0799Z" fill="white"/>
<path d="M18.4784 16.3202C19.0749 16.3202 19.5584 15.8366 19.5584 15.2402C19.5584 14.6437 19.0749 14.1602 18.4784 14.1602C17.882 14.1602 17.3984 14.6437 17.3984 15.2402C17.3984 15.8366 17.882 16.3202 18.4784 16.3202Z" fill="white"/>
<path d="M18.4784 9.83969C19.0749 9.83969 19.5584 9.35616 19.5584 8.75969C19.5584 8.16322 19.0749 7.67969 18.4784 7.67969C17.882 7.67969 17.3984 8.16322 17.3984 8.75969C17.3984 9.35616 17.882 9.83969 18.4784 9.83969Z" fill="white"/>
<path d="M15.2402 13.0799C15.8366 13.0799 16.3202 12.5964 16.3202 11.9999C16.3202 11.4035 15.8366 10.9199 15.2402 10.9199C14.6437 10.9199 14.1602 11.4035 14.1602 11.9999C14.1602 12.5964 14.6437 13.0799 15.2402 13.0799Z" fill="white"/>
<path d="M11.998 13.0799C12.5944 13.0799 13.078 12.5964 13.078 11.9999C13.078 11.4035 12.5944 10.9199 11.998 10.9199C11.4015 10.9199 10.918 11.4035 10.918 11.9999C10.918 12.5964 11.4015 13.0799 11.998 13.0799Z" fill="white"/>
<path d="M8.75969 13.0799C9.35616 13.0799 9.83969 12.5964 9.83969 11.9999C9.83969 11.4035 9.35616 10.9199 8.75969 10.9199C8.16322 10.9199 7.67969 11.4035 7.67969 11.9999C7.67969 12.5964 8.16322 13.0799 8.75969 13.0799Z" fill="white"/>
<path d="M5.5175 13.0799C6.11397 13.0799 6.5975 12.5964 6.5975 11.9999C6.5975 11.4035 6.11397 10.9199 5.5175 10.9199C4.92103 10.9199 4.4375 11.4035 4.4375 11.9999C4.4375 12.5964 4.92103 13.0799 5.5175 13.0799Z" fill="white"/>
<path d="M2.27922 13.0799C2.87569 13.0799 3.35922 12.5964 3.35922 11.9999C3.35922 11.4035 2.87569 10.9199 2.27922 10.9199C1.68275 10.9199 1.19922 11.4035 1.19922 11.9999C1.19922 12.5964 1.68275 13.0799 2.27922 13.0799Z" fill="white"/>
<path d="M15.2402 19.5604C15.8366 19.5604 16.3202 19.0769 16.3202 18.4804C16.3202 17.8839 15.8366 17.4004 15.2402 17.4004C14.6437 17.4004 14.1602 17.8839 14.1602 18.4804C14.1602 19.0769 14.6437 19.5604 15.2402 19.5604Z" fill="white"/>
<path d="M15.2402 6.59945C15.8366 6.59945 16.3202 6.11592 16.3202 5.51945C16.3202 4.92299 15.8366 4.43945 15.2402 4.43945C14.6437 4.43945 14.1602 4.92299 14.1602 5.51945C14.1602 6.11592 14.6437 6.59945 15.2402 6.59945Z" fill="white"/>
</svg>
