<svg width="78" height="29" viewBox="0 0 78 29" fill="none" xmlns="http://www.w3.org/2000/svg">
<g clip-path="url(#clip0_34385_795)">
<mask id="mask0_34385_795" style="mask-type:luminance" maskUnits="userSpaceOnUse" x="0" y="0" width="78" height="29">
<path d="M0 0H78V29H0V0Z" fill="white"/>
</mask>
<g mask="url(#mask0_34385_795)">
<path d="M44.6718 10.5399H37.3008C37.9522 16.4448 37.9566 22.4037 37.3138 28.3096H44.6891C44.0992 22.4014 44.0934 16.4492 44.6718 10.5399ZM77.9027 18.1118C77.7005 15.8918 76.9161 13.9155 75.2276 12.3973C72.1841 9.66406 66.3876 9.45961 63.1173 11.9884C60.6907 13.8647 60.019 16.5255 59.9453 19.4124C60.0075 22.3414 60.6546 24.9862 63.0437 26.8625C64.4795 27.9892 66.1579 28.4677 67.9317 28.5967C70.783 28.8026 73.461 28.3169 75.5757 26.1636C77.7712 23.9306 78.1728 21.0959 77.9027 18.1132V18.1118ZM69.0078 26.9959H68.9991C68.9669 26.9983 68.9346 26.9983 68.9023 26.9959C68.7457 26.9724 68.597 26.9112 68.469 26.8176C68.3535 26.7466 68.2517 26.6552 68.1686 26.5479C67.2268 25.4923 66.5537 22.7097 66.5537 19.4429C66.5537 16.1775 67.2326 13.3761 68.1787 12.3277C68.2379 12.2582 68.3043 12.195 68.3766 12.1392C68.537 11.9931 68.7391 11.9012 68.9543 11.8768H69.0078C70.3656 11.8768 71.4633 15.2611 71.4633 19.4342C71.4633 23.6073 70.3656 26.9959 69.0078 26.9959ZM35.8289 18.1553C35.5342 15.5772 34.63 13.3282 32.4402 11.8086C30.782 10.6588 28.9086 10.2644 26.9311 10.231C22.4663 10.1585 19.277 12.5902 18.237 16.901C17.9741 17.9958 18.0478 18.1596 19.056 18.728C20.5077 16.0774 23.2348 15.9034 25.5936 16.6705C27.5306 17.3041 28.9793 18.7585 28.9418 19.7271C28.2441 19.3066 27.5075 18.7295 26.6653 18.3858C25.2007 17.7855 23.6522 17.8319 22.1153 18.1176C19.4778 18.6062 17.743 20.4956 17.7083 22.9026C17.6592 26.2608 18.9838 28.0573 21.9723 28.6881C22.514 28.8041 23.0615 28.8983 23.606 29.0013H25.5199C26.8257 28.7359 28.1257 28.459 29.0155 27.0481V28.2821H36.3229C36.164 25.0283 36.0196 21.8325 35.8693 18.6381C35.8549 18.4801 35.8477 18.3162 35.8289 18.1553ZM28.065 26.6523C28.0284 26.9484 27.8825 27.22 27.6562 27.4135C27.4325 27.6054 27.1441 27.7039 26.8502 27.689H26.7029C25.5993 27.689 24.7067 25.965 24.7067 23.8378C24.7067 21.7571 25.5632 20.062 26.635 19.9924H26.6596C27.3413 19.9344 27.7761 20.339 28.0246 20.9117L28.104 21.0973C28.5157 21.9499 28.7208 22.8924 28.702 23.8436C28.6933 24.95 28.4492 25.9505 28.0665 26.6537L28.065 26.6523Z" fill="#AAA9AD"/>
<path d="M60.632 10.683C59.4634 9.40985 56.7941 9.29095 55.5707 10.6583C54.7517 11.5718 54.1724 12.7376 53.6192 13.8614C53.2047 14.6994 53.0039 15.6507 52.7063 16.5453L52.5576 16.5149L52.7944 12.7637C52.8757 11.6084 53.0959 10.4671 53.4502 9.3649C53.9283 7.82355 54.2071 4.9511 51.3312 1.84665C49.5589 -0.0644505 43.7724 -0.492201 41.0367 0.563399C37.5296 1.9264 37.1612 5.2498 37.1612 5.2498C37.1612 5.2498 37.1612 5.3049 37.1699 5.4006C37.18 5.49775 37.1612 5.56445 37.1612 5.6442C37.1608 6.2104 37.2875 6.76942 37.5318 7.27975C37.7761 7.79007 38.1318 8.23861 38.5724 8.59205C39.1849 9.14015 39.9692 9.44755 40.7824 9.46205H41.0049C41.5281 9.46376 42.0462 9.35817 42.5273 9.15175C43.6251 8.7965 44.9208 8.04975 44.9208 6.48955C44.9208 3.77225 48.126 4.4204 48.126 6.0328C48.126 7.17105 47.788 7.8221 47.5916 8.09905C47.4923 8.23785 47.3993 8.38106 47.3128 8.52825C46.859 9.28842 46.2791 9.96516 45.5982 10.5293C46.2204 16.4339 46.2234 22.3879 45.6069 28.2932H52.8898C52.7786 25.6904 52.7078 23.153 52.5431 20.6154C52.4564 19.2713 52.9346 18.1824 53.6958 17.1732C54.2447 16.4467 54.9712 16.0189 55.9014 16.1219C56.9183 16.2365 57.9309 16.4046 58.9637 16.5511C58.9891 16.5196 59.0114 16.4856 59.0301 16.4496C59.6426 14.9851 60.2203 13.4974 60.879 12.0561C61.139 11.4761 61.0148 11.0991 60.632 10.683ZM7.65556 9.5128C7.66711 8.89365 7.62956 8.00915 8.61178 8.0309C9.54345 8.05265 9.50733 8.9038 9.58245 9.5389C9.74133 10.9309 9.83956 12.3272 9.96089 13.7149H16.9419C16.8711 12.9638 16.8321 12.2692 16.7382 11.5834C16.3713 8.869 14.7824 7.1029 12.1377 6.73025C10.6401 6.5225 9.12669 6.45358 7.61656 6.52435V6.5055C6.61418 6.50577 5.62189 6.70644 4.69759 7.0958C3.7733 7.48516 2.93551 8.05542 2.23311 8.7733C0.800719 10.2386 -0.00119998 12.21 1.3478e-06 14.263V20.8634C1.3478e-06 22.6121 0.577779 24.31 1.64233 25.6803C2.69823 27.0472 4.18542 28.0135 5.86011 28.4208V28.4411C5.99589 28.4657 6.13311 28.486 6.27033 28.5078C6.53467 28.5557 6.80045 28.589 7.06767 28.6093C8.93868 28.8026 10.8278 28.72 12.675 28.3643C15.5451 27.8205 17.1196 25.122 16.7873 21.5043H9.93056C9.90889 21.8102 9.90022 22.077 9.87278 22.341C9.737 23.659 9.64889 24.9872 9.425 26.2878C9.36722 26.6315 8.93678 27.0723 8.59733 27.1651C8.03833 27.3188 7.826 26.7838 7.77256 26.3067C7.72489 25.8934 7.67145 25.4802 7.62233 25.0641V11.7023C7.62956 10.9729 7.64111 10.2436 7.65411 9.5128H7.65556Z" fill="#AAA9AD"/>
</g>
</g>
<defs>
<clipPath id="clip0_34385_795">
<rect width="78" height="29" fill="white"/>
</clipPath>
</defs>
</svg>
