<svg width="96" height="42" viewBox="0 0 96 42" fill="none" xmlns="http://www.w3.org/2000/svg">
<g clip-path="url(#clip0_34385_785)">
<mask id="mask0_34385_785" style="mask-type:luminance" maskUnits="userSpaceOnUse" x="0" y="0" width="96" height="42">
<path d="M96 0H0V42H96V0Z" fill="white"/>
</mask>
<g mask="url(#mask0_34385_785)">
<path d="M65.3699 14.9065V12.1957L58.2195 9.04922L65.3699 6.04792V3.36133L55.3984 8.00845V10.1868L65.3699 14.9065Z" fill="#AAA9AD"/>
<path d="M4.81519 28.8889C5.36647 29.8409 6.42034 30.3169 7.97688 30.3169C9.53338 30.3169 10.5792 29.849 11.1143 28.9131C11.6655 27.9772 11.9412 26.4121 11.9412 24.2176C11.9412 22.007 11.6574 20.4015 11.09 19.4011C10.5387 18.4006 9.50096 17.9004 7.97688 17.9004C6.45275 17.9004 5.407 18.4006 4.83949 19.4011C4.27202 20.4015 3.98828 21.9989 3.98828 24.1934C3.98828 26.3717 4.26392 27.9369 4.81519 28.8889ZM13.2302 30.6316C12.2411 31.987 10.49 32.6647 7.97688 32.6647C5.46372 32.6647 3.70454 31.987 2.69929 30.6316C1.69404 29.26 1.19141 27.114 1.19141 24.1934C1.19141 21.2728 1.69404 19.1025 2.69929 17.6826C3.72076 16.2626 5.47995 15.5527 7.97688 15.5527C10.4738 15.5527 12.2249 16.2626 13.2302 17.6826C14.2354 19.0864 14.7381 21.2567 14.7381 24.1934C14.7381 27.1301 14.2354 29.2762 13.2302 30.6316ZM19.0581 32.3984H16.4072V20.2966H19.0338V21.0469C20.2174 20.3692 21.3362 20.0304 22.3901 20.0304C24.0114 20.0304 25.114 20.4902 25.6977 21.4099C26.2976 22.3135 26.5975 23.8142 26.5975 25.9118V32.3984H23.9709V25.9845C23.9709 24.6775 23.825 23.7497 23.5331 23.201C23.2575 22.6524 22.6819 22.3781 21.8064 22.3781C20.9795 22.3781 20.185 22.5395 19.4229 22.8622L19.0581 23.0074V32.3984ZM29.3282 34.359H39.7375V36.6099H29.3282V34.359ZM42.8841 32.3984V15.8189H53.3906V18.1667H45.5837V22.8622H51.9316V25.1857H45.5837V30.0265H53.3906V32.3984H42.8841ZM53.5909 20.2966H56.3633L58.6984 30.1475H59.4766L61.9086 20.2966H64.6082L61.4462 32.3984H56.7283L53.5909 20.2966ZM73.9907 30.2201L74.6715 30.1475L74.7202 32.108C72.8716 32.4791 71.234 32.6647 69.8075 32.6647C68.0076 32.6647 66.7105 32.1726 65.916 31.1883C65.1378 30.204 64.7487 28.6307 64.7487 26.4685C64.7487 22.1764 66.5078 20.0304 70.0264 20.0304C73.4309 20.0304 75.1334 21.8779 75.1334 25.573L74.9632 27.4609H67.4237C67.4399 28.4613 67.6589 29.1955 68.0804 29.6634C68.502 30.1314 69.2885 30.3653 70.4396 30.3653C71.5907 30.3653 72.7747 30.3169 73.9907 30.2201ZM72.5312 25.4278C72.5312 24.2337 72.3369 23.4027 71.9473 22.9348C71.5745 22.4507 70.934 22.2087 70.0264 22.2087C69.1183 22.2087 68.4533 22.4588 68.0317 22.959C67.6264 23.4592 67.4158 24.2821 67.3996 25.4278H72.5312ZM79.1756 32.3984H76.5247V20.2966H79.151V21.0469C80.3346 20.3692 81.4536 20.0304 82.5073 20.0304C84.1287 20.0304 85.2315 20.4902 85.8149 21.4099C86.415 22.3135 86.7151 23.8142 86.7151 25.9118V32.3984H84.0883V25.9845C84.0883 24.6775 83.9422 23.7497 83.6505 23.201C83.375 22.6524 82.799 22.3781 81.9239 22.3781C81.097 22.3781 80.3026 22.5395 79.5401 22.8622L79.1756 23.0074V32.3984ZM95.1854 22.5475H91.8291V27.8724C91.8291 28.8566 91.9019 29.5101 92.048 29.8328C92.1941 30.1556 92.5669 30.3169 93.1666 30.3169L95.1608 30.2443L95.2827 32.35C94.1961 32.5598 93.3692 32.6647 92.802 32.6647C91.4237 32.6647 90.4753 32.35 89.9564 31.7208C89.4536 31.0915 89.2023 29.9055 89.2023 28.1628V22.5475H87.6459V20.2966H89.2023V16.787H91.8291V20.2966H95.1854V22.5475Z" fill="#AAA9AD"/>
<path d="M69.8691 17.8866L76.8247 0.847131L74.4901 0L67.5586 17.0636L69.8691 17.8866Z" fill="#AAA9AD"/>
<path d="M78.3672 14.9065L88.3387 10.1868V8.00845L78.3672 3.36133V6.04792L85.5171 9.04922L78.3672 12.1957V14.9065Z" fill="#AAA9AD"/>
</g>
</g>
<defs>
<clipPath id="clip0_34385_785">
<rect width="96" height="42" fill="white"/>
</clipPath>
</defs>
</svg>
