<svg width="44" height="29" viewBox="0 0 44 29" fill="none" xmlns="http://www.w3.org/2000/svg">
<g clip-path="url(#clip0_34385_776)">
<mask id="mask0_34385_776" style="mask-type:luminance" maskUnits="userSpaceOnUse" x="0" y="0" width="44" height="29">
<path d="M44 0H0V29H44V0Z" fill="white"/>
</mask>
<g mask="url(#mask0_34385_776)">
<path d="M0 18.7646C0 13.1118 4.60107 8.5293 10.2768 8.5293C15.9525 8.5293 20.5536 13.1118 20.5536 18.7646V24.4509C20.5536 26.9632 18.5087 28.9999 15.9862 28.9999H10.2768C4.60107 28.9999 0 24.4174 0 18.7646Z" fill="#AAA9AD"/>
<path d="M23.1211 8.07215V5.11766C23.1211 2.29125 25.4216 0 28.2595 0C31.0973 0 33.3981 2.29125 33.3981 5.11763V5.80667C33.3981 7.16033 34.2658 8.36286 35.5541 8.79438L37.0138 9.28342C40.9939 10.6166 43.6746 14.3318 43.6746 18.5139V18.8265C43.6746 24.4452 39.1016 29 33.4599 29H27.6885C25.166 29 23.1211 26.9633 23.1211 24.451V8.07215Z" fill="#AAA9AD"/>
<path d="M42.0921 3.6909C41.7427 3.6909 41.4254 3.61143 41.1394 3.45248C40.8598 3.28718 40.6376 3.06463 40.4726 2.78487C40.3137 2.50511 40.2344 2.19039 40.2344 1.84069C40.2344 1.49099 40.3169 1.17944 40.4819 0.906037C40.6473 0.626278 40.8695 0.406922 41.1491 0.247968C41.4283 0.0826561 41.7427 0 42.0921 0C42.4412 0 42.7557 0.0826561 43.0352 0.247968C43.3148 0.406922 43.5338 0.626278 43.6926 0.906037C43.8576 1.17944 43.9401 1.49099 43.9401 1.84069C43.9401 2.19039 43.8576 2.50511 43.6926 2.78487C43.5338 3.06463 43.3148 3.28718 43.0352 3.45248C42.7622 3.61143 42.4477 3.6909 42.0921 3.6909ZM42.0921 3.42387C42.3904 3.42387 42.6574 3.3571 42.8922 3.22358C43.1336 3.08371 43.3209 2.89296 43.4545 2.65135C43.594 2.40974 43.6639 2.13952 43.6639 1.84069C43.6639 1.54185 43.594 1.27481 43.4545 1.03956C43.3209 0.797948 43.1336 0.610382 42.8922 0.476863C42.6574 0.336983 42.3904 0.267043 42.0921 0.267043C41.7935 0.267043 41.5237 0.336983 41.2824 0.476863C41.0471 0.610382 40.8598 0.797948 40.7201 1.03956C40.5868 1.27481 40.5201 1.54185 40.5201 1.84069C40.5201 2.13952 40.5868 2.40974 40.7201 2.65135C40.8598 2.89296 41.0471 3.08371 41.2824 3.22358C41.5237 3.3571 41.7935 3.42387 42.0921 3.42387ZM41.7013 2.85163H41.4063V0.791591H42.1491C42.3714 0.791591 42.5493 0.848814 42.6826 0.963261C42.8162 1.07135 42.8829 1.22395 42.8829 1.42105C42.8829 1.55457 42.8479 1.67219 42.778 1.77393C42.7081 1.87566 42.6001 1.95195 42.4542 2.00282L42.921 2.85163H42.5875L42.1682 2.06958H41.7013V2.85163ZM42.5684 1.43059C42.5684 1.18897 42.4254 1.06817 42.1397 1.06817H41.7013V1.793H42.1397C42.273 1.793 42.3778 1.76439 42.4542 1.70717C42.5302 1.64358 42.5684 1.55139 42.5684 1.43059Z" fill="#AAA9AD"/>
</g>
</g>
<defs>
<clipPath id="clip0_34385_776">
<rect width="44" height="29" fill="white"/>
</clipPath>
</defs>
</svg>
