<svg width="117" height="30" viewBox="0 0 117 30" fill="none" xmlns="http://www.w3.org/2000/svg">
<g clip-path="url(#clip0_34381_581)">
<mask id="mask0_34381_581" style="mask-type:luminance" maskUnits="userSpaceOnUse" x="0" y="0" width="117" height="30">
<path d="M117 0H0V30H117V0Z" fill="white"/>
</mask>
<g mask="url(#mask0_34381_581)">
<path d="M45.8012 24.3957C43.9437 24.3957 42.3769 24.136 41.101 23.6167C39.844 23.0973 38.8965 22.3646 38.2586 21.4186C37.6207 20.454 37.3017 19.3225 37.3017 18.0241V17.8571H40.3413V18.3023C40.3413 19.0443 40.5099 19.6657 40.8478 20.1665C41.1856 20.6488 41.7484 21.0198 42.5364 21.2795C43.3247 21.5206 44.4127 21.6412 45.8012 21.6412C47.0023 21.6412 47.9592 21.5577 48.672 21.3908C49.3851 21.2053 49.8915 20.927 50.1919 20.556C50.5109 20.1665 50.6704 19.6842 50.6704 19.1092C50.6704 18.293 50.4077 17.6995 49.8821 17.3285C49.3568 16.9575 48.503 16.6607 47.3212 16.4381L42.7053 15.6869C41.6546 15.4828 40.7166 15.186 39.8909 14.7965C39.0655 14.3884 38.4181 13.8505 37.9487 13.1827C37.4986 12.4964 37.2734 11.6431 37.2734 10.6229C37.2734 9.95517 37.4234 9.29667 37.7239 8.64743C38.0239 7.9982 38.4929 7.4139 39.1309 6.89453C39.7688 6.37517 40.5946 5.96707 41.6078 5.67027C42.6395 5.35493 43.8969 5.19727 45.3791 5.19727C47.2177 5.19727 48.7283 5.4755 49.9104 6.032C51.0925 6.58847 51.9648 7.349 52.5279 8.31353C53.1095 9.25957 53.4002 10.3447 53.4002 11.5689V11.7359H50.3889V11.3742C50.3889 10.6137 50.2199 9.98297 49.8821 9.48213C49.5446 8.96277 48.9909 8.5825 48.2218 8.34137C47.4524 8.08167 46.4112 7.95183 45.0975 7.95183C43.9532 7.95183 43.0243 8.04457 42.3115 8.23007C41.6172 8.41557 41.1104 8.6938 40.7915 9.0648C40.4725 9.41723 40.313 9.88097 40.313 10.456C40.313 10.9754 40.4256 11.402 40.6509 11.7359C40.8761 12.0698 41.2231 12.3387 41.6921 12.5428C42.1611 12.7283 42.7616 12.9045 43.4933 13.0714L48.0809 13.8505C49.3382 14.0731 50.3794 14.407 51.2052 14.8522C52.0494 15.2973 52.6779 15.8631 53.0906 16.5494C53.5033 17.2357 53.71 18.0333 53.71 18.9423C53.71 19.8883 53.4379 20.7786 52.8937 21.6134C52.3495 22.4481 51.4958 23.1251 50.3325 23.6445C49.1693 24.1453 47.6587 24.3957 45.8012 24.3957ZM62.5663 24.1175H58.795L54.6012 10.289H57.7534L60.0894 18.1354L60.7368 21.6968H60.962L62.0032 17.8571L64.9302 10.289H68.8142L71.7695 17.8571L72.8107 21.6968H73.0359L73.6833 18.1354L76.0193 10.289H79.1152L74.8655 24.1175H71.0942L68.0262 16.1599L66.9567 12.7654H66.7318L65.6622 16.1599L62.5663 24.1175ZM83.6988 24.1175H80.6592V10.289H83.6988V24.1175ZM83.6988 8.67527H80.6592V5.4755H83.6988V8.67527ZM93.1276 24.3957C90.8759 24.3957 89.131 23.9691 87.8926 23.1158C86.673 22.2626 86.0631 21.0383 86.0631 19.4431V19.3596H89.1027V19.5822C89.1027 20.4911 89.4031 21.1218 90.0033 21.4742C90.6227 21.8081 91.6639 21.9751 93.1276 21.9751C94.4972 21.9751 95.4261 21.8359 95.9137 21.5577C96.4205 21.2609 96.6737 20.8065 96.6737 20.1943C96.6737 19.6193 96.4768 19.2112 96.0826 18.9701C95.7073 18.7289 95.0131 18.5435 93.9999 18.4136L90.1722 17.9128C88.8401 17.7458 87.7989 17.3748 87.0483 16.7998C86.2978 16.2062 85.9225 15.3252 85.9225 14.1566C85.9225 13.3404 86.1666 12.6262 86.6541 12.0141C87.142 11.3834 87.8737 10.8919 88.8495 10.5395C89.8253 10.187 91.026 10.0108 92.4519 10.0108C93.8781 10.0108 95.0977 10.1963 96.1109 10.5673C97.1427 10.9383 97.931 11.4947 98.4749 12.2367C99.0379 12.9787 99.3195 13.8969 99.3195 14.9913V15.0747H96.3078V14.9078C96.3078 14.3699 96.1952 13.9154 95.97 13.5444C95.7451 13.1734 95.3415 12.8952 94.7599 12.7097C94.1971 12.5057 93.3997 12.4037 92.3676 12.4037C91.0728 12.4037 90.1722 12.552 89.6658 12.8488C89.159 13.1456 88.9058 13.6186 88.9058 14.2679C88.9058 14.8058 89.0936 15.1953 89.4689 15.4365C89.8438 15.6776 90.5475 15.8724 91.5796 16.0208L94.8162 16.4659C96.4673 16.67 97.6869 17.0688 98.4749 17.6624C99.2632 18.2559 99.657 19.1278 99.657 20.2778C99.657 21.1311 99.3849 21.873 98.841 22.5037C98.2968 23.1158 97.5368 23.5888 96.561 23.9227C95.5856 24.2381 94.4409 24.3957 93.1276 24.3957ZM108.464 24.3957C106.213 24.3957 104.468 23.9691 103.23 23.1158C102.01 22.2626 101.4 21.0383 101.4 19.4431V19.3596H104.44V19.5822C104.44 20.4911 104.74 21.1218 105.34 21.4742C105.959 21.8081 107.001 21.9751 108.464 21.9751C109.834 21.9751 110.763 21.8359 111.251 21.5577C111.757 21.2609 112.011 20.8065 112.011 20.1943C112.011 19.6193 111.814 19.2112 111.42 18.9701C111.044 18.7289 110.35 18.5435 109.337 18.4136L105.509 17.9128C104.177 17.7458 103.136 17.3748 102.385 16.7998C101.635 16.2062 101.26 15.3252 101.26 14.1566C101.26 13.3404 101.503 12.6262 101.991 12.0141C102.479 11.3834 103.211 10.8919 104.187 10.5395C105.162 10.187 106.363 10.0108 107.789 10.0108C109.215 10.0108 110.434 10.1963 111.448 10.5673C112.48 10.9383 113.268 11.4947 113.812 12.2367C114.375 12.9787 114.656 13.8969 114.656 14.9913V15.0747H111.645V14.9078C111.645 14.3699 111.532 13.9154 111.307 13.5444C111.082 13.1734 110.679 12.8952 110.097 12.7097C109.534 12.5057 108.736 12.4037 107.705 12.4037C106.41 12.4037 105.509 12.552 105.003 12.8488C104.496 13.1456 104.243 13.6186 104.243 14.2679C104.243 14.8058 104.43 15.1953 104.806 15.4365C105.181 15.6776 105.885 15.8724 106.916 16.0208L110.153 16.4659C111.804 16.67 113.024 17.0688 113.812 17.6624C114.6 18.2559 114.994 19.1278 114.994 20.2778C114.994 21.1311 114.722 21.873 114.178 22.5037C113.634 23.1158 112.874 23.5888 111.898 23.9227C110.922 24.2381 109.778 24.3957 108.464 24.3957Z" fill="#AAA9AD"/>
<path d="M18.217 0H11.9219V11.7867L18.217 5.89337V0Z" fill="#AAA9AD"/>
<path d="M2.75169e-07 18.0105L0 11.7871H11.9226L5.9613 18.0105H2.75169e-07Z" fill="#AAA9AD"/>
<path d="M30.1413 11.7871V18.0104H18.2188L24.18 11.7871H30.1413Z" fill="#AAA9AD"/>
<path d="M18.2437 11.7617H11.8984V29.7967H18.2437V11.7617Z" fill="#AAA9AD"/>
</g>
</g>
<defs>
<clipPath id="clip0_34381_581">
<rect width="117" height="30" fill="white"/>
</clipPath>
</defs>
</svg>
