<svg width="100" height="33" viewBox="0 0 100 33" fill="none" xmlns="http://www.w3.org/2000/svg">
<g clip-path="url(#clip0_34381_601)">
<mask id="mask0_34381_601" style="mask-type:luminance" maskUnits="userSpaceOnUse" x="0" y="0" width="100" height="33">
<path d="M100 0H0V33H100V0Z" fill="white"/>
</mask>
<g mask="url(#mask0_34381_601)">
<path d="M96.3482 7.52148H99.9876L92.3969 28.8201C92.189 29.4127 91.9463 29.9141 91.669 30.3243C91.4147 30.7574 91.1028 31.0993 90.7333 31.3499C90.3864 31.6235 89.9589 31.8172 89.4508 31.9311C88.9422 32.0679 88.3415 32.1363 87.6482 32.1363H85.4645V29.0936H88.5147L89.5548 26.0852L83.0039 7.52148H86.782L90.3864 17.9828L91.4262 21.8459H91.5998L92.7433 17.9828L96.3482 7.52148Z" fill="#AAA9AD"/>
<path d="M38.9723 25.2985C37.6783 25.2985 36.7078 24.9794 36.0608 24.3412C35.4369 23.6803 35.125 22.7686 35.125 21.6063V0H38.9032V22.2558H41.3987V25.2985H38.9723Z" fill="#AAA9AD"/>
<path d="M40.2656 7.52148H43.9396L45.7767 14.9743L47.4057 21.7092H47.5098L49.3816 14.9743L51.5652 7.52148H54.9619L57.1801 14.9743L59.0864 21.7092H59.1905L60.7849 14.9743L62.6566 7.52148H66.1574L61.305 25.2988H57.0414L54.6845 17.1965L53.2288 12.2051H53.1596L51.7384 17.1965L49.347 25.2988H45.1875L40.2656 7.52148Z" fill="#AAA9AD"/>
<path d="M17.3304 27.4277C17.3304 29.2738 16.6141 30.6641 15.1814 31.5985C13.7488 32.5329 11.415 33.0002 8.17994 33.0002C6.70109 33.0002 5.44176 32.8976 4.40191 32.6925C3.38521 32.5102 2.5418 32.2367 1.87168 31.872C1.22468 31.5073 0.750985 31.0629 0.450591 30.5387C0.150197 30.0145 0 29.4105 0 28.7268C0 27.7468 0.265733 26.9833 0.7972 26.4363C1.35177 25.8892 2.11431 25.5132 3.08481 25.3081V24.932C1.72149 24.499 1.03982 23.5873 1.03982 22.1971C1.03982 21.2854 1.35177 20.5902 1.97567 20.1116C2.59956 19.6102 3.35055 19.2569 4.22864 19.0518V18.9151C3.16569 18.4137 2.34538 17.7186 1.7677 16.8297C1.21313 15.918 0.935843 14.8582 0.935843 13.6503C0.935843 11.827 1.54819 10.3569 2.77287 9.24015C4.02065 8.12339 5.7999 7.56499 8.11065 7.56499C9.38154 7.56499 10.4676 7.7473 11.3688 8.11199V7.63334C11.3688 6.83566 11.5536 6.22028 11.9233 5.78725C12.3161 5.33141 12.9169 5.10352 13.7257 5.10352H16.4986V8.11199H12.8245V8.82992C13.6332 9.35411 14.2572 10.0378 14.6962 10.8811C15.1352 11.7016 15.3547 12.6246 15.3547 13.6503C15.3547 15.4508 14.7309 16.9094 13.4831 18.0262C12.2353 19.1202 10.456 19.6672 8.14529 19.6672C7.26723 19.6672 6.48158 19.576 5.78834 19.3937C5.32622 19.5532 4.92184 19.7812 4.57522 20.0774C4.22864 20.351 4.05533 20.7156 4.05533 21.1715C4.05533 21.6501 4.27485 21.9919 4.71388 22.1971C5.15291 22.4022 5.77682 22.5047 6.58555 22.5047H11.0221C13.2404 22.5047 14.8464 22.9492 15.84 23.838C16.8336 24.7041 17.3304 25.9006 17.3304 27.4277ZM13.795 27.8379C13.795 27.2226 13.5524 26.7325 13.0672 26.3679C12.605 26.0032 11.75 25.8209 10.5022 25.8209H4.40191C3.57007 26.2995 3.15414 26.9833 3.15414 27.8721C3.15414 28.6014 3.44298 29.1826 4.02065 29.6157C4.62143 30.0715 5.62659 30.2994 7.03615 30.2994H9.3931C12.3277 30.2994 13.795 29.4789 13.795 27.8379ZM8.14529 16.9664C9.25444 16.9664 10.1094 16.7271 10.7102 16.2485C11.3341 15.7471 11.646 14.9835 11.646 13.9579V13.2742C11.646 12.2486 11.3341 11.4965 10.7102 11.0179C10.1094 10.5164 9.25444 10.2657 8.14529 10.2657C7.03615 10.2657 6.16964 10.5164 5.54574 11.0179C4.94496 11.4965 4.64455 12.2486 4.64455 13.2742V13.9579C4.64455 14.9835 4.94496 15.7471 5.54574 16.2485C6.16964 16.7271 7.03615 16.9664 8.14529 16.9664Z" fill="#AAA9AD"/>
<path d="M73.3832 25.2987C72.2043 25.2987 71.124 25.0926 70.1419 24.6804C69.1817 24.2681 68.3631 23.6823 67.6865 22.9229C67.0099 22.1418 66.4861 21.2088 66.1151 20.1239C65.7441 19.0174 65.5586 17.7915 65.5586 16.4462C65.5586 15.101 65.7441 13.8859 66.1151 12.8011C66.4861 11.6945 67.0099 10.7615 67.6865 10.0021C68.3631 9.22106 69.1817 8.62438 70.1419 8.21214C71.124 7.79986 72.2043 7.59375 73.3832 7.59375C74.5616 7.59375 75.6311 7.79986 76.5913 8.21214C77.5735 8.62438 78.4029 9.22106 79.0794 10.0021C79.756 10.7615 80.2798 11.6945 80.6508 12.8011C81.0222 13.8859 81.2077 15.101 81.2077 16.4462C81.2077 17.7915 81.0222 19.0174 80.6508 20.1239C80.2798 21.2088 79.756 22.1418 79.0794 22.9229C78.4029 23.6823 77.5735 24.2681 76.5913 24.6804C75.6311 25.0926 74.5616 25.2987 73.3832 25.2987ZM73.3832 22.3696C74.6055 22.3696 75.5876 22.0008 76.3296 21.263C77.0716 20.5036 77.4426 19.3754 77.4426 17.8782V15.0142C77.4426 13.5171 77.0716 12.3997 76.3296 11.662C75.5876 10.9026 74.6055 10.5229 73.3832 10.5229C72.1608 10.5229 71.1787 10.9026 70.4367 11.662C69.6947 12.3997 69.3233 13.5171 69.3233 15.0142V17.8782C69.3233 19.3754 69.6947 20.5036 70.4367 21.263C71.1787 22.0008 72.1608 22.3696 73.3832 22.3696Z" fill="#AAA9AD"/>
<path d="M78.8098 24.7153C79.341 25.2623 80.1035 25.5358 81.0971 25.5358H83.2116V22.4931H81.3053V7.13875L77.5273 7.13867L77.8392 22.5615C77.9548 23.4276 78.2782 24.1455 78.8098 24.7153Z" fill="#AAA9AD"/>
<path d="M23.6761 25.2987C22.4975 25.2987 21.4172 25.0926 20.435 24.6804C19.4747 24.2681 18.6562 23.6823 17.9796 22.9229C17.303 22.1418 16.7792 21.2088 16.4082 20.1239C16.0371 19.0174 15.8516 17.7915 15.8516 16.4462C15.8516 15.101 16.0371 13.8859 16.4082 12.8011C16.7792 11.6945 17.303 10.7615 17.9796 10.0021C18.6562 9.22106 19.4747 8.62438 20.435 8.21214C21.4172 7.79986 22.4975 7.59375 23.6761 7.59375C24.8547 7.59375 25.9241 7.79986 26.8845 8.21214C27.8666 8.62438 28.696 9.22106 29.3726 10.0021C30.0492 10.7615 30.573 11.6945 30.944 12.8011C31.3151 13.8859 31.5006 15.101 31.5006 16.4462C31.5006 17.7915 31.3151 19.0174 30.944 20.1239C30.573 21.2088 30.0492 22.1418 29.3726 22.9229C28.696 23.6823 27.8666 24.2681 26.8845 24.6804C25.9241 25.0926 24.8547 25.2987 23.6761 25.2987ZM23.6761 22.3696C24.8983 22.3696 25.8805 22.0008 26.6225 21.263C27.3646 20.5036 27.7357 19.3754 27.7357 17.8782V15.0142C27.7357 13.5171 27.3646 12.3997 26.6225 11.662C25.8805 10.9026 24.8983 10.5229 23.6761 10.5229C22.4538 10.5229 21.4717 10.9026 20.7296 11.662C19.9876 12.3997 19.6165 13.5171 19.6165 15.0142V17.8782C19.6165 19.3754 19.9876 20.5036 20.7296 21.263C21.4717 22.0008 22.4538 22.3696 23.6761 22.3696Z" fill="#AAA9AD"/>
<path d="M29.0989 24.7153C29.6304 25.2623 30.3929 25.5358 31.3865 25.5358H33.5008V22.4931H31.5944V7.13875L27.8164 7.13867L28.1284 22.5615C28.2439 23.4276 28.5674 24.1455 29.0989 24.7153Z" fill="#AAA9AD"/>
<path d="M83.3251 28.7656H79.9922V32.053H83.3251V28.7656Z" fill="#AAA9AD"/>
<path d="M78.3233 28.7656H57.4922V32.053H78.3233V28.7656Z" fill="#AAA9AD"/>
</g>
</g>
<defs>
<clipPath id="clip0_34381_601">
<rect width="100" height="33" fill="white"/>
</clipPath>
</defs>
</svg>
