<svg width="103" height="25" viewBox="0 0 103 25" fill="none" xmlns="http://www.w3.org/2000/svg">
<g clip-path="url(#clip0_34385_718)">
<mask id="mask0_34385_718" style="mask-type:luminance" maskUnits="userSpaceOnUse" x="0" y="0" width="103" height="25">
<path d="M103 0H0V25H103V0Z" fill="white"/>
</mask>
<g mask="url(#mask0_34385_718)">
<path d="M52.3596 3.88928C50.5147 4.97455 48.7809 6.26564 47.1574 7.76253C45.534 9.22203 43.9473 10.7189 42.3979 12.2532C41.5123 13.114 40.6452 13.9934 39.7967 14.8916C38.9481 15.7897 38.0995 16.6878 37.2509 17.586C36.808 18.1099 36.3284 18.6338 35.812 19.1577C35.3323 19.6442 34.8527 20.1682 34.373 20.7295C35.1479 20.5424 35.9042 20.3178 36.6421 20.0559C37.4169 19.7939 38.118 19.5694 38.7451 19.3823C39.2985 19.27 39.8889 19.1203 40.516 18.9332C41.1434 18.7461 41.7705 18.5964 42.3979 18.4841C43.025 18.3344 43.6521 18.2596 44.2795 18.2596C44.9436 18.2222 45.5522 18.3157 46.1059 18.5403C46.8067 18.8022 47.2312 19.2513 47.3786 19.8875C47.4894 20.2991 47.4524 20.6921 47.2679 21.0663C47.8953 20.8792 48.5039 20.6734 49.0943 20.4488C49.7217 20.2243 50.3118 20.0185 50.8654 19.8314C51.9352 19.4946 53.0052 19.1577 54.0753 18.8209C55.1453 18.4467 56.2336 18.1473 57.3406 17.9228C57.6358 17.8479 57.9863 17.8105 58.3922 17.8105C58.8348 17.7731 59.2223 17.8105 59.5542 17.9228C59.8864 18.0351 60.1261 18.2409 60.2738 18.5403C60.4582 18.8022 60.4768 19.1952 60.329 19.7191C60.2183 20.0559 59.9971 20.3366 59.6649 20.5611C59.333 20.7482 58.9456 20.8979 58.5026 21.0102C58.06 21.1224 57.6173 21.216 57.1744 21.2908C56.7317 21.3282 56.3813 21.3844 56.1229 21.4592C54.8686 21.8335 53.6326 22.2264 52.4149 22.6381C51.1974 23.0123 49.9799 23.3865 48.7624 23.7607C48.135 23.9478 47.4524 24.135 46.7145 24.3221C45.9767 24.5466 45.2756 24.584 44.6114 24.4343C44.3532 24.3969 44.0766 24.2846 43.7814 24.0975C43.1542 23.611 42.8591 23.162 42.8958 22.7503C42.9328 22.3387 43.0987 21.927 43.3939 21.5154H42.7298C41.4016 21.7399 40.0734 22.0206 38.7451 22.3574C37.6751 22.6568 36.5868 22.9936 35.4798 23.3678C34.4097 23.742 33.303 23.9853 32.1592 24.0975C31.7533 24.1349 31.3476 24.0601 30.9417 23.873C30.5358 23.7233 30.2406 23.4052 30.0561 22.9187C29.9087 22.5071 29.9087 22.1141 30.0561 21.7399C30.2039 21.3282 30.4065 20.9353 30.665 20.5611C29.595 21.1973 28.5804 21.7399 27.6211 22.189C26.6987 22.6006 25.9976 22.9 25.518 23.0871C24.5587 23.4988 23.5256 23.9291 22.4188 24.3782C21.3119 24.8273 20.205 25.0331 19.0981 24.9957C17.8806 24.9208 17.1427 24.584 16.8844 23.9853C16.6261 23.3865 16.6815 22.6381 17.0504 21.7399C17.3825 20.8043 17.9175 19.8126 18.6554 18.7648C19.3933 17.6796 20.1681 16.6504 20.9798 15.6774C21.8284 14.7044 22.6032 13.8624 23.3043 13.1514C24.0053 12.4029 24.4665 11.9164 24.6878 11.6919L25.4627 10.906C24.3927 10.906 23.3412 10.906 22.3081 10.906C21.275 10.906 20.2235 10.9247 19.1535 10.9622C17.0135 11.037 14.892 11.1493 12.789 11.299C10.649 11.4112 8.50907 11.5796 6.36913 11.8042C5.59431 11.9164 4.83796 12.0287 4.10004 12.141C3.32522 12.2158 2.55042 12.3468 1.77561 12.5339C1.59113 12.5714 1.3882 12.6275 1.16683 12.7023C0.945452 12.7772 0.742525 12.7772 0.558047 12.7023C0.152194 12.5526 -0.0322843 12.2907 0.00461213 11.9164C0.00461213 11.5048 0.189091 11.2428 0.558047 11.1306C4.98553 9.97047 9.54216 9.24072 14.2279 8.94136C18.9137 8.60455 23.5441 8.39872 28.1193 8.32386C29.0783 7.42572 30.0376 6.5463 30.9969 5.68558C31.9562 4.82486 32.9341 3.96414 33.9301 3.10342C34.4097 2.65434 34.9634 2.093 35.5905 1.41939C36.2546 0.708358 36.9187 0.259286 37.5829 0.072173C37.9518 -0.0400959 38.2655 -0.0213846 38.5237 0.128306C38.8189 0.240574 39.0403 0.4464 39.1878 0.74578C39.3355 1.00774 39.3907 1.30712 39.354 1.64392C39.317 1.98073 39.1693 2.28011 38.9111 2.54207C37.7673 3.51505 36.6421 4.48805 35.5353 5.46103C34.4282 6.39661 33.34 7.36958 32.2699 8.38C32.8233 8.38 33.34 8.45486 33.8196 8.60455C34.2623 8.7168 34.6497 8.90392 34.9816 9.16589C35.3508 9.42783 35.609 9.82078 35.7565 10.3447C35.8672 10.7938 35.812 11.1867 35.5905 11.5235C35.369 11.8229 35.0924 12.0474 34.7604 12.1971C34.4282 12.3094 34.0778 12.3281 33.7089 12.2532C33.3767 12.141 33.1185 11.8977 32.934 11.5235C32.4544 11.3364 31.901 11.2054 31.2736 11.1306C30.6465 11.0183 30.0561 10.9622 29.5027 10.9622L28.9494 11.4674C27.4366 12.9269 25.8316 14.4986 24.1344 16.1826C22.4741 17.8667 21.1643 19.6817 20.205 21.6276C21.4964 21.3657 22.8246 20.9914 24.1898 20.5049C25.5549 20.0185 26.9016 19.4758 28.2297 18.8771C29.558 18.2783 30.868 17.6421 32.1592 16.9685C33.4507 16.2575 34.6497 15.5277 35.7565 14.7793C37.1587 13.3198 38.5792 11.8977 40.0181 10.5131C41.4938 9.09103 42.988 7.72511 44.501 6.4153C45.4233 5.59203 46.3641 4.78744 47.3234 4.00155C48.2827 3.21567 49.2605 2.48594 50.2566 1.81233C50.6625 1.51295 51.1051 1.32583 51.5848 1.25099C52.1014 1.13872 52.5256 1.34454 52.8578 1.86846C53.0423 2.20527 53.079 2.57949 52.9685 2.99114C52.8945 3.36536 52.6916 3.66475 52.3596 3.88928Z" fill="#AAA9AD"/>
<path d="M84.7308 20.785C83.8822 20.8598 83.0336 21.0095 82.1851 21.234C81.3732 21.4212 80.5431 21.6083 79.6946 21.7954C77.4807 22.3193 75.2854 22.8245 73.1086 23.311C70.9318 23.7601 68.718 24.0969 66.4675 24.3214C65.8771 24.3963 65.2497 24.4524 64.5856 24.4898C63.9585 24.5272 63.3129 24.5085 62.6487 24.4337C62.0214 24.3589 61.4127 24.2092 60.8224 23.9846C60.232 23.7975 59.6971 23.4981 59.2174 23.0865C58.8115 22.7497 58.4978 22.3567 58.2766 21.9077C58.0182 21.4586 57.8707 20.9908 57.8337 20.5043C57.76 20.0178 57.797 19.55 57.9444 19.101C58.0922 18.6145 58.3689 18.1841 58.7745 17.8099C59.033 17.5479 59.4386 17.3421 59.9923 17.1924C60.5824 17.0053 61.2283 16.8743 61.9291 16.7995C62.6302 16.7246 63.3314 16.7059 64.0322 16.7433C64.7333 16.7807 65.3419 16.9117 65.8586 17.1363C66.3752 17.3608 66.7257 17.6789 66.9101 18.0905C67.1316 18.4648 67.1131 18.9513 66.8549 19.55C66.6334 19.9991 66.3012 20.3172 65.8586 20.5043C65.4159 20.6914 64.9178 20.8224 64.3644 20.8972C63.8107 20.9347 63.2389 20.9347 62.6487 20.8972C62.0584 20.8224 61.5417 20.7475 61.0991 20.6727C61.2465 20.8224 61.5417 20.9534 61.9846 21.0657C62.4273 21.1405 62.8884 21.1966 63.3681 21.234C63.8847 21.2715 64.3459 21.2902 64.7518 21.2902C65.1945 21.2902 65.4712 21.2902 65.5819 21.2902C67.3898 21.1405 69.1792 20.8785 70.9503 20.5043C72.7582 20.1301 74.5476 19.7372 76.3185 19.3255C77.61 19.0261 78.8827 18.7267 80.1372 18.4274C81.4284 18.0905 82.7199 17.8473 84.0112 17.6976C84.5648 17.6602 85.026 17.7912 85.3949 18.0905C85.7638 18.3899 86.0035 18.7454 86.1142 19.1571C86.225 19.5313 86.1697 19.8868 85.9483 20.2236C85.7638 20.5604 85.3579 20.7475 84.7308 20.785Z" fill="#AAA9AD"/>
<path d="M101.436 20.7861C99.5545 20.8235 97.6359 20.8797 95.6805 20.9545C93.7249 20.9919 91.8063 20.7674 89.9247 20.2809C89.7772 20.2809 89.6295 20.2435 89.482 20.1686C89.2606 20.8048 88.9287 21.4223 88.4857 22.0211C88.0801 22.5824 87.6187 23.0689 87.1023 23.4805C86.5856 23.8922 86.0137 24.1916 85.3866 24.3787C84.7962 24.5658 84.2059 24.5845 83.6155 24.4348C83.0621 24.2851 82.6562 24.0044 82.398 23.5928C82.1028 23.1812 81.9368 22.7134 81.8998 22.1894C81.8631 21.6655 81.9368 21.1416 82.1213 20.6177C82.269 20.0938 82.4902 19.626 82.7854 19.2144C83.2651 18.6156 83.8739 18.1665 84.6118 17.8671C85.3496 17.5678 86.0875 17.5303 86.8256 17.7549C86.8993 17.2309 87.1945 16.8193 87.7109 16.5199C88.2276 16.2205 88.7809 16.2579 89.3713 16.6322C89.9247 16.969 90.5151 17.2309 91.1422 17.4181C91.8063 17.5678 92.4889 17.6613 93.19 17.6987C93.8912 17.7361 94.5735 17.7549 95.2376 17.7549C95.9387 17.7174 96.6028 17.6987 97.23 17.6987C97.9681 17.6987 98.7612 17.6613 99.6097 17.5865C100.458 17.4742 101.233 17.5303 101.934 17.7549C102.34 17.9046 102.616 18.1478 102.764 18.4846C102.948 18.8214 103.004 19.1582 102.93 19.495C102.893 19.8318 102.746 20.1312 102.487 20.3932C102.229 20.6551 101.879 20.7861 101.436 20.7861ZM84.8885 21.5158C84.9992 21.4036 85.2207 21.3474 85.5526 21.3474V20.8422C85.4789 20.9171 85.3681 21.0106 85.2207 21.1229C85.0729 21.1978 84.9622 21.3287 84.8885 21.5158Z" fill="#AAA9AD"/>
</g>
</g>
<defs>
<clipPath id="clip0_34385_718">
<rect width="103" height="25" fill="white"/>
</clipPath>
</defs>
</svg>
