<svg width="88" height="24" viewBox="0 0 88 24" fill="none" xmlns="http://www.w3.org/2000/svg">
<g clip-path="url(#clip0_34381_698)">
<mask id="mask0_34381_698" style="mask-type:luminance" maskUnits="userSpaceOnUse" x="0" y="0" width="88" height="24">
<path d="M88 0H0V24H88V0Z" fill="white"/>
</mask>
<g mask="url(#mask0_34381_698)">
<path d="M0 13.1715H6.63834C6.70592 13.5408 6.90017 13.8598 7.2211 14.1285C7.54203 14.3803 7.98123 14.5818 8.53863 14.7329C9.09606 14.8672 9.76328 14.9343 10.5403 14.9343C11.5538 14.9343 12.3392 14.8336 12.8966 14.6321C13.471 14.4307 13.7581 14.1033 13.7581 13.65C13.7581 13.3478 13.5976 13.0959 13.2767 12.8945C12.9558 12.6762 12.297 12.5335 11.3004 12.4663L8.15857 12.2649C5.30391 12.0802 3.24315 11.4758 1.9763 10.4516C0.709441 9.42748 0.0760116 8.07596 0.0760116 6.39706C0.0760116 4.98676 0.481406 3.81154 1.2922 2.87135C2.10299 1.93116 3.23473 1.22602 4.68737 0.755922C6.15694 0.285829 7.87141 0.0507812 9.83084 0.0507812C11.7396 0.0507812 13.4287 0.319405 14.8983 0.856656C16.3847 1.37712 17.5587 2.11584 18.4201 3.07282C19.2985 4.0298 19.7799 5.14628 19.8644 6.42223H13.226C13.1753 6.12004 13.0064 5.8598 12.7193 5.64156C12.449 5.4233 12.0605 5.2554 11.5538 5.13788C11.047 5.02036 10.4305 4.96159 9.70415 4.96159C8.7751 4.96159 8.04033 5.05394 7.4998 5.2386C6.97618 5.4233 6.71435 5.72548 6.71435 6.14522C6.71435 6.43063 6.86639 6.67407 7.17042 6.87554C7.49135 7.07703 8.09946 7.21132 8.9947 7.2785L12.5419 7.50514C14.4 7.62266 15.9033 7.89967 17.0519 8.3362C18.2006 8.75594 19.0367 9.34354 19.5603 10.0991C20.1008 10.8546 20.3711 11.7864 20.3711 12.8945C20.3711 14.288 19.9573 15.5052 19.1296 16.5461C18.3019 17.587 17.1364 18.4013 15.633 18.9889C14.1466 19.5597 12.4068 19.8451 10.4136 19.8451C8.35284 19.8451 6.54543 19.5681 4.99143 19.0141C3.43742 18.46 2.22123 17.6794 1.34287 16.672C0.481406 15.6647 0.0337829 14.4978 0 13.1715Z" fill="#AAA9AD"/>
<path d="M27.4057 23.9994C26.1897 23.9994 25.1171 23.8483 24.188 23.5461C23.2759 23.2606 22.3637 22.7822 21.4516 22.1106V17.8294C22.3468 18.4002 23.1745 18.8115 23.9346 19.0634C24.7116 19.2984 25.5478 19.416 26.443 19.416C27.1525 19.416 27.769 19.2732 28.2927 18.9878C28.8331 18.6856 29.2723 18.1148 29.61 17.2753L34.5509 4.91016H41.3918L34.7537 19.1893C34.1962 20.3981 33.5121 21.3551 32.7013 22.0602C31.9074 22.7654 31.0543 23.2606 30.1423 23.5461C29.2301 23.8483 28.3179 23.9994 27.4057 23.9994ZM26.595 17.4516L20.7422 4.91016H27.8366L32.7265 17.4516H26.595Z" fill="#AAA9AD"/>
<path d="M54.6476 19.3914L53.9127 14.0021L54.9008 12.2141L53.9127 9.79643L55.2303 0H61.9191L60.2975 11.6348L61.3364 19.3914H54.6476ZM55.8637 12.1637C55.6947 13.7083 55.2724 15.0598 54.5969 16.2183C53.9379 17.3599 53.0681 18.2497 51.9872 18.8877C50.9229 19.5257 49.6984 19.8447 48.3132 19.8447C46.8942 19.8447 45.6442 19.5257 44.5632 18.8877C43.4992 18.2497 42.6629 17.3515 42.055 16.1931C41.4637 15.0346 41.168 13.6915 41.168 12.1637C41.168 10.6191 41.4637 9.26758 42.055 8.10912C42.6629 6.9507 43.4992 6.05245 44.5632 5.41448C45.6442 4.77651 46.8942 4.45749 48.3132 4.45749C49.6984 4.45749 50.9229 4.77651 51.9872 5.41448C53.0681 6.03568 53.9465 6.9255 54.6221 8.08395C55.2979 9.2256 55.7116 10.5855 55.8637 12.1637ZM47.6545 12.1637C47.6545 12.7177 47.7642 13.213 47.9837 13.6495C48.2203 14.0693 48.5412 14.405 48.9466 14.6569C49.3689 14.9087 49.8502 15.0346 50.3908 15.0346C50.9483 15.0346 51.4887 14.9087 52.0124 14.6569C52.5361 14.405 52.9922 14.0693 53.3807 13.6495C53.7861 13.213 54.0646 12.7177 54.2167 12.1637C54.0646 11.6097 53.7861 11.1144 53.3807 10.6779C52.9922 10.2413 52.5361 9.89718 52.0124 9.64534C51.4887 9.3935 50.9483 9.26758 50.3908 9.26758C49.8502 9.26758 49.3689 9.3935 48.9466 9.64534C48.5412 9.89718 48.2203 10.2413 47.9837 10.6779C47.7642 11.1144 47.6545 11.6097 47.6545 12.1637Z" fill="#AAA9AD"/>
<path d="M87.6938 0.669514V7.36835L78.1093 6.28547V1.7524L87.6938 0.669514ZM68.3867 4.01894C68.3867 2.9948 68.674 2.17213 69.2481 1.55094C69.8395 0.929738 70.6079 0.619141 71.5539 0.619141C72.4999 0.619141 73.2599 0.929738 73.8343 1.55094C74.4254 2.17213 74.721 2.9948 74.721 4.01894C74.721 5.04307 74.4254 5.86574 73.8343 6.48694C73.2599 7.10814 72.4999 7.41872 71.5539 7.41872C70.6079 7.41872 69.8395 7.10814 69.2481 6.48694C68.674 5.86574 68.3867 5.04307 68.3867 4.01894Z" fill="#AAA9AD"/>
<path d="M82.4742 20.9245L87.8964 19.1652V12.5167L80.0925 14.5783L68.3867 11.9375V18.5859L78.2429 20.9245L80.6753 19.9424L82.4742 20.9245Z" fill="#AAA9AD"/>
</g>
</g>
<defs>
<clipPath id="clip0_34381_698">
<rect width="88" height="24" fill="white"/>
</clipPath>
</defs>
</svg>
