<svg width="160" height="160" viewBox="0 0 160 160" fill="none" xmlns="http://www.w3.org/2000/svg">
<path d="M33.7438 57.1471V56.5625C33.7438 45.6113 47.0162 40.1267 54.7787 47.8705L104 96.9732V3.88542C96.2511 1.36679 87.9809 0 79.3893 0C35.5437 0 0 35.4583 0 79.1981C0 105.988 13.3357 129.668 33.7438 144V57.1471Z" fill="black"/>
<path d="M126.256 16V107.27C126.256 110.824 125.367 114.17 123.803 117.104C120.269 123.736 113.276 128.254 105.221 128.254L56 79.151V156.115C63.749 158.633 72.0192 160 80.6108 160C124.456 160 160 124.542 160 80.802C160 54.0123 146.664 30.332 126.256 16Z" fill="#FD3F00"/>
</svg>
