<svg width="119" height="36" viewBox="0 0 119 36" fill="none" xmlns="http://www.w3.org/2000/svg">
<path d="M7.59249 12.8577V12.7261C7.59249 10.2622 10.5788 9.02821 12.3254 10.7705L23.4004 21.8182V0.874191C21.6569 0.307516 19.7961 0 17.8629 0C7.99748 0 0 7.97784 0 17.819C0 23.8464 3.00058 29.1743 7.59249 32.3989V12.8577Z" fill="white"/>
<path d="M28.4056 3.60156V24.1365C28.4056 24.9362 28.2056 25.6891 27.8537 26.3491C27.0585 27.8413 25.4849 28.8578 23.6727 28.8578L12.5977 17.8101V35.1263C14.3412 35.693 16.202 36.0005 18.1352 36.0005C28.0006 36.0005 35.9981 28.0226 35.9981 18.1815C35.9981 12.154 32.9975 6.82616 28.4056 3.60156Z" fill="#FD3F00"/>
<path d="M47.112 29V6.6H55.144L59.592 26.12H60.168V6.6H64.328V29H56.296L51.848 9.48H51.272V29H47.112ZM67.6775 29V13.128H71.7095V29H67.6775ZM69.6935 11.272C68.9682 11.272 68.3495 11.0373 67.8375 10.568C67.3468 10.0987 67.1015 9.48 67.1015 8.712C67.1015 7.944 67.3468 7.32533 67.8375 6.856C68.3495 6.38667 68.9682 6.152 69.6935 6.152C70.4402 6.152 71.0588 6.38667 71.5495 6.856C72.0402 7.32533 72.2855 7.944 72.2855 8.712C72.2855 9.48 72.0402 10.0987 71.5495 10.568C71.0588 11.0373 70.4402 11.272 69.6935 11.272ZM75.1775 29V13.128H79.1455V14.856H79.7215C79.9988 14.3227 80.4575 13.864 81.0975 13.48C81.7375 13.0747 82.5802 12.872 83.6255 12.872C84.7562 12.872 85.6628 13.096 86.3455 13.544C87.0282 13.9707 87.5508 14.536 87.9135 15.24H88.4895C88.8522 14.5573 89.3642 13.992 90.0255 13.544C90.6868 13.096 91.6255 12.872 92.8415 12.872C93.8228 12.872 94.7082 13.0853 95.4975 13.512C96.3082 13.9173 96.9482 14.5467 97.4175 15.4C97.9082 16.232 98.1535 17.288 98.1535 18.568V29H94.1215V18.856C94.1215 17.9813 93.8975 17.3307 93.4495 16.904C93.0015 16.456 92.3722 16.232 91.5615 16.232C90.6442 16.232 89.9295 16.5307 89.4175 17.128C88.9268 17.704 88.6815 18.536 88.6815 19.624V29H84.6495V18.856C84.6495 17.9813 84.4255 17.3307 83.9775 16.904C83.5295 16.456 82.9002 16.232 82.0895 16.232C81.1722 16.232 80.4575 16.5307 79.9455 17.128C79.4548 17.704 79.2095 18.536 79.2095 19.624V29H75.1775ZM109.042 29.448C107.463 29.448 106.045 29.128 104.786 28.488C103.527 27.848 102.535 26.92 101.81 25.704C101.085 24.488 100.722 23.0267 100.722 21.32V20.808C100.722 19.1013 101.085 17.64 101.81 16.424C102.535 15.208 103.527 14.28 104.786 13.64C106.045 13 107.463 12.68 109.042 12.68C110.621 12.68 112.039 13 113.298 13.64C114.557 14.28 115.549 15.208 116.274 16.424C116.999 17.64 117.362 19.1013 117.362 20.808V21.32C117.362 23.0267 116.999 24.488 116.274 25.704C115.549 26.92 114.557 27.848 113.298 28.488C112.039 29.128 110.621 29.448 109.042 29.448ZM109.042 25.864C110.279 25.864 111.303 25.4693 112.114 24.68C112.925 23.8693 113.33 22.7173 113.33 21.224V20.904C113.33 19.4107 112.925 18.2693 112.114 17.48C111.325 16.6693 110.301 16.264 109.042 16.264C107.805 16.264 106.781 16.6693 105.97 17.48C105.159 18.2693 104.754 19.4107 104.754 20.904V21.224C104.754 22.7173 105.159 23.8693 105.97 24.68C106.781 25.4693 107.805 25.864 109.042 25.864Z" fill="white"/>
</svg>
